<svg xmlns="http://www.w3.org/2000/svg" height="48" width="48" viewBox="0 0 48 48">
    <title>monkey hear no</title>
    <g class="nc-icon-wrapper">
        <path d="M24,44A20,20,0,1,1,44,24,20.023,20.023,0,0,1,24,44Z" fill="#87613e"></path>
        <path d="M24,41A12,12,0,1,1,36,29,12.013,12.013,0,0,1,24,41Z" fill="#ead8c5"></path>
        <path d="M17,28a8,8,0,1,1,8-8A8.009,8.009,0,0,1,17,28Z" fill="#ead8c5"></path>
        <path d="M31,28a8,8,0,1,1,8-8A8.009,8.009,0,0,1,31,28Z" fill="#ead8c5"></path>
        <path d="M17,23a3,3,0,1,1,3-3A3,3,0,0,1,17,23Z" fill="#444"></path>
        <path d="M31,23a3,3,0,1,1,3-3A3,3,0,0,1,31,23Z" fill="#444"></path>
        <path d="M33,29a1,1,0,0,0-1-1H16a1,1,0,0,0-1,1v1H33Z" fill="#fff"></path>
        <path d="M15.059,30a9,9,0,0,0,17.882,0Z" fill="#444"></path>
        <path d="M19.114,36.547a8.942,8.942,0,0,0,9.772,0,5.96,5.96,0,0,0-9.772,0Z" fill="#fa645a"></path>
        <path d="M21,7a8.277,8.277,0,0,1,8-7c-2,1-1,6-1,6Z" fill="#87613e"></path>
        <circle cx="22" cy="25" r="1" fill="#c6a279"></circle>
        <circle cx="26" cy="25" r="1" fill="#c6a279"></circle>
        <path d="M8,29.938A1,1,0,0,0,7,29H3a1,1,0,0,0-1,1V46a1,1,0,0,0,1,1H8a1,1,0,0,0,1-1.062Z" fill="#a67c52"></path>
        <path
            d="M1.829,31.51c-.855-1.886-1.1-6.047-.522-10.079S3.565,11.5,6.125,11.5s1.05,6.4.72,8.271C6.167,23.625,9,26,7.733,31.1,6.88,34.526,2.958,34,1.829,31.51Z"
            fill="#eebc99"></path>
        <path d="M45,29H41a1,1,0,0,0-1,.938l-1,16A1,1,0,0,0,40,47h5a1,1,0,0,0,1-1V30A1,1,0,0,0,45,29Z" fill="#a67c52">
        </path>
        <path
            d="M46.171,31.51c.855-1.886,1.1-6.047.522-10.079S44.435,11.5,41.875,11.5s-1.05,6.4-.72,8.271C41.833,23.625,39,26,40.267,31.1,41.12,34.526,45.042,34,46.171,31.51Z"
            fill="#eebc99"></path>
    </g>
</svg>