<svg xmlns="http://www.w3.org/2000/svg" height="48" width="48" viewBox="0 0 48 48">
    <title>party</title>
    <g class="nc-icon-wrapper">
        <path
            d="M36.707,33.293l-22-22a1,1,0,0,0-1.65.374L1.754,43.694a2,2,0,0,0,1.878,2.669,2.031,2.031,0,0,0,.673-.116l32.028-11.3a1,1,0,0,0,.374-1.65Z"
            fill="#ddc2a7"></path>
        <polygon points="24.05 20.636 29.61 37.316 26.321 38.477 18.535 15.121 24.05 20.636" fill="#d0ab86"></polygon>
        <polygon points="12.03 14.576 20.663 40.476 17.373 41.637 10.139 19.937 12.03 14.576" fill="#d0ab86"></polygon>
        <polygon points="8.43 44.793 5 34.505 6.89 29.148 11.718 43.632 8.43 44.793" fill="#d0ab86"></polygon>
        <path d="M18,9a1,1,0,0,1-.929-1.37h0l2-5a1,1,0,0,1,1.858.742l-2,5A1,1,0,0,1,18,9Z" fill="#857cf8"></path>
        <path d="M40,31a1,1,0,0,1-.371-1.929l5-2a1,1,0,0,1,.742,1.858h0l-5,2A1,1,0,0,1,40,31Z" fill="#ea5da3"></path>
        <path
            d="M36,25a1,1,0,0,1,0-2,4,4,0,0,0,4-4,6.006,6.006,0,0,1,6-6,1,1,0,0,1,0,2,4,4,0,0,0-4,4A6.006,6.006,0,0,1,36,25Z"
            fill="#ffd764"></path>
        <path
            d="M24,13a1,1,0,0,1-1-1,6.006,6.006,0,0,1,6-6,4,4,0,0,0,4-4,1,1,0,0,1,2,0,6.006,6.006,0,0,1-6,6,4,4,0,0,0-4,4A1,1,0,0,1,24,13Z"
            fill="#6cc4f5"></path>
        <circle cx="42" cy="6" r="3" fill="#ea5da3"></circle>
        <path d="M30,19a1,1,0,0,1-.707-1.707l6-6a1,1,0,0,1,1.414,1.414l-6,6A1,1,0,0,1,30,19Z" fill="#857cf8"></path>
    </g>
</svg>