<svg xmlns="http://www.w3.org/2000/svg" height="48" width="48" viewBox="0 0 48 48">
    <title>camera flash</title>
    <g class="nc-icon-wrapper">
        <path fill="#EFD358"
            d="M11.99951,45c-0.19775,0-0.39648-0.05811-0.56934-0.17822c-0.40869-0.2832-0.54688-0.82422-0.32471-1.26904 L20.38184,25H10c-0.33936,0-0.65527-0.17188-0.83984-0.45703c-0.18408-0.28516-0.21143-0.64404-0.07227-0.95312l9-20 C18.24951,3.23096,18.60645,3,19,3h13c0.34668,0,0.66846,0.17969,0.85059,0.47412c0.18213,0.29492,0.19873,0.66309,0.04395,0.97314 L27.61816,15H38c0.39795,0,0.75781,0.23584,0.9165,0.6001c0.15918,0.36475,0.08691,0.78906-0.18359,1.08057l-26,28 C12.53711,44.89111,12.26953,45,11.99951,45z">
        </path>
    </g>
</svg>